PathFileType  4	(X/Y/Z) C:\Users\antoi\Documents\MyRepositories\mobilecap\ResultsAnalysis
DataRate	CameraRate	NumFrames	NumMarkers	Units	OrigDataRate	OrigDataStartFrame	OrigNumFrames
100.0	100.0	4	51	mm	100.0	100	132
Frame#	Time	r_knee			r_shank_antsup			r_ankle			r_calc			r_5meta			r_toe			L_knee			L_shank_antsup			L_ankle			L_calc			L_5meta			L_toe			r_sh2			r_sh3			r_sh4			L_sh2			L_sh3			r_thigh1			r_thigh2			r_thigh3			r_thigh4			r_thigh5			L_thigh1			L_thigh2			L_thigh3			L_thigh4			r.ASIS			r.PSIS			L.ASIS			L.PSIS			C7			R_Shoulder			L_Shoulder			R_Sternum			L_Sternum			R_humerus			R_elbow_med			R_elbow_lat			R_forearm			R_wrist_radius			R_wrist_ulna			L_humerus			L_elbow_med			L_elbow_lat			L_forearm			L_wrist_radius			L_wrist_ulna			R_HJC			L_HJC			R_HJC_reg			L_HJC_reg			
		X1	Y1	Z1	X2	Y2	Z2	X3	Y3	Z3	X4	Y4	Z4	X5	Y5	Z5	X6	Y6	Z6	X7	Y7	Z7	X8	Y8	Z8	X9	Y9	Z9	X10	Y10	Z10	X11	Y11	Z11	X12	Y12	Z12	X13	Y13	Z13	X14	Y14	Z14	X15	Y15	Z15	X16	Y16	Z16	X17	Y17	Z17	X18	Y18	Z18	X19	Y19	Z19	X20	Y20	Z20	X21	Y21	Z21	X22	Y22	Z22	X23	Y23	Z23	X24	Y24	Z24	X25	Y25	Z25	X26	Y26	Z26	X27	Y27	Z27	X28	Y28	Z28	X29	Y29	Z29	X30	Y30	Z30	X31	Y31	Z31	X32	Y32	Z32	X33	Y33	Z33	X34	Y34	Z34	X35	Y35	Z35	X36	Y36	Z36	X37	Y37	Z37	X38	Y38	Z38	X39	Y39	Z39	X40	Y40	Z40	X41	Y41	Z41	X42	Y42	Z42	X43	Y43	Z43	X44	Y44	Z44	X45	Y45	Z45	X46	Y46	Z46	X47	Y47	Z47	X48	Y48	Z48	X49	Y49	Z49	X50	Y50	Z50	X51	Y51	Z51	

100	0.99000000	1210.83307	512.97954	-101.15128	1270.53172	437.56449	-107.31685	1292.68879	108.67300	-116.00230	1248.15177	56.62767	-168.19208	1422.43885	97.19225	-74.91814	1442.37853	141.57535	-126.46512	950.81659	494.90894	-359.58941	964.61678	404.24113	-342.20875	820.21798	102.07946	-307.65393	742.83611	65.19197	-258.25530	917.13017	37.74386	-345.75787	967.68193	60.92117	-289.31689	1294.41339	327.05631	-109.41925	1208.51032	422.50732	-66.03089	1226.21954	308.88171	-63.92892	888.70051	434.07395	-382.25637	852.02914	319.27592	-378.02664	1147.40954	785.94399	-85.53001	1196.91245	688.34654	-100.40784	1166.14372	640.85247	-60.36992	1054.59121	733.17527	-48.87245	1110.56585	634.21413	-71.01179	1075.20064	726.53185	-390.39688	1062.56381	590.91969	-357.46727	973.43449	726.45341	-430.99974	957.70457	599.77233	-388.71257	1118.03053	960.34716	-123.78670	911.43944	981.17594	-195.12434	1112.08906	955.26263	-377.89943	911.00342	989.01904	-287.89455	957.50729	1447.40154	-261.28584	1006.72646	1418.87622	-89.40675	1052.91488	1416.19136	-402.03246	1080.03071	1373.44094	-222.31197	1081.81889	1375.10980	-268.39060	1014.05465	1288.49240	-27.35352	913.89167	1101.12942	-88.13027	908.31062	1113.86187	-19.79468	938.85841	1042.18909	15.31358	938.95592	865.81715	0.68872	905.07910	882.32535	33.58936	1117.47988	1294.46380	-448.01140	1103.79185	1083.44258	-417.44568	1141.06514	1104.09345	-484.29068	1213.95669	1083.63087	-469.25446	1340.08887	975.17543	-404.52864	1324.01618	956.45828	-448.48604	1039.01276	869.01892	-144.63482	1033.18756	868.90902	-334.10432	1050.10761	867.67665	-166.64745	1049.32467	881.80984	-333.82739	
101	1.00000000	1221.56410	509.76190	-100.83699	1283.70713	436.70251	-107.49985	1319.19249	108.71029	-118.51728	1276.00986	55.02448	-170.42214	1450.06157	102.23717	-79.26348	1467.25865	147.71975	-130.74138	957.33973	494.27635	-359.42686	969.85126	403.36386	-342.15417	820.82984	103.12222	-307.51973	743.43222	66.81392	-258.10154	917.21944	37.66696	-345.82486	968.15418	60.64873	-289.49586	1311.73263	327.14438	-110.47346	1222.45713	419.11802	-66.13010	1244.33391	306.10622	-65.00388	894.34537	434.37172	-382.00399	855.80349	320.09802	-377.73889	1159.31799	782.96632	-85.79430	1208.08898	684.99199	-100.81585	1177.60818	637.84784	-60.30700	1066.76641	731.00873	-48.05947	1121.84855	631.43076	-70.51470	1085.04942	724.34026	-390.56269	1070.65397	588.76845	-357.78969	983.10125	725.64989	-430.69107	965.82010	599.09446	-388.22846	1131.09567	957.94895	-123.75240	924.31100	978.71207	-193.86651	1124.37289	953.01557	-377.84165	923.38316	987.02407	-286.57229	970.24294	1445.06510	-260.87340	1019.47702	1416.48492	-88.98618	1065.71798	1413.52581	-401.74801	1092.85048	1370.86007	-221.94158	1094.61743	1372.53570	-268.04599	1026.06571	1286.10594	-26.86899	925.12403	1099.14380	-87.64726	919.19421	1112.10316	-19.40045	949.24760	1040.37394	16.02895	948.88440	864.06461	1.79359	914.76892	880.68279	34.42018	1130.62230	1292.06843	-447.44101	1118.71300	1081.11158	-416.80601	1155.90093	1102.13708	-483.59212	1229.22373	1083.15349	-468.00994	1357.07330	977.82721	-401.62441	1341.60947	958.43572	-445.48227	1052.09705	866.60076	-144.22206	1045.37935	866.73816	-333.66251	1063.36136	864.80400	-166.72529	1061.69231	879.78388	-333.82714	
102	1.01000000	1232.41984	506.72105	-100.59813	1296.64394	435.56870	-107.74180	1342.95198	108.68835	-121.40092	1300.98118	53.74017	-173.24531	1474.60180	106.26394	-83.52494	1489.49891	152.66460	-134.75935	964.32762	493.62446	-359.25569	975.57040	402.44395	-342.04588	821.59960	104.34306	-307.51920	744.11907	68.76154	-258.03233	917.36305	37.58905	-345.90220	968.66204	60.33085	-289.66535	1328.04745	326.90393	-111.64788	1236.00218	415.82050	-66.46089	1261.29401	303.43446	-66.37051	900.51911	434.68497	-381.75848	860.06746	320.99701	-377.56108	1171.41053	780.21680	-85.81012	1219.56676	681.90436	-100.95189	1189.21676	635.00854	-60.21254	1079.08521	729.00380	-47.37423	1133.32250	628.81962	-70.16014	1095.12575	722.08589	-390.71868	1079.03272	586.58320	-358.11811	993.01741	724.83164	-430.23555	974.29927	598.37529	-387.66601	1144.25410	955.50889	-123.65757	937.27414	976.20628	-192.60782	1136.86288	950.71948	-377.74630	935.99403	984.89204	-285.29883	983.01377	1442.67481	-260.35701	1032.23970	1414.06069	-88.47734	1078.53640	1410.82294	-401.39771	1105.72252	1368.26576	-221.47771	1107.45706	1369.94238	-267.60780	1038.22530	1283.68852	-26.29969	936.63987	1097.06137	-87.10309	930.38553	1110.22161	-18.93693	959.99703	1038.46136	16.80555	959.25299	862.17552	2.95657	924.94577	878.91555	35.29912	1143.67718	1289.54404	-446.83615	1133.35005	1078.66248	-416.07683	1170.44236	1100.03266	-482.83996	1244.13812	1082.42770	-466.75475	1373.52312	980.06812	-398.86000	1358.66268	960.07209	-442.63769	1065.31146	864.13337	-143.77388	1057.78666	864.49296	-333.18510	1076.60571	861.99673	-166.75053	1074.30011	877.64798	-333.80071	
103	1.02000000	1243.58489	503.91838	-100.53762	1309.46522	434.11627	-108.13818	1363.76940	108.30234	-124.61763	1322.85328	52.52072	-176.65406	1495.92545	108.86585	-87.59199	1509.07047	156.07381	-138.41645	971.83816	492.96416	-359.08647	981.80645	401.48035	-341.91755	822.56438	105.75902	-307.67045	744.90057	71.09786	-258.08217	917.57003	37.51219	-346.00265	969.20103	59.94025	-289.84059	1343.38546	326.19478	-113.00450	1249.25041	412.63978	-67.06753	1277.10762	300.80134	-68.02361	907.25626	435.02888	-381.53357	864.83056	322.00398	-377.49157	1183.77847	777.70987	-85.52596	1231.45062	679.11162	-100.82949	1201.08326	632.34868	-60.07066	1091.58979	727.10299	-46.83337	1145.08603	626.38450	-69.96053	1105.49559	719.80446	-390.79890	1087.80669	584.41153	-358.38867	1003.26530	723.99115	-429.64539	983.21839	597.63081	-387.04350	1157.50125	953.08838	-123.44352	950.34031	973.68148	-191.39989	1149.58227	948.39950	-377.60150	948.85899	982.61302	-284.09690	995.82506	1440.27245	-259.73261	1045.02115	1411.63375	-87.86960	1091.38064	1408.14353	-400.96572	1118.64827	1365.70668	-220.91069	1120.34321	1367.38030	-267.06514	1050.53524	1281.27229	-25.63763	948.44894	1094.90746	-86.49943	941.90624	1108.23525	-18.39725	971.11568	1036.46532	17.64638	970.08005	860.17238	4.17435	935.62529	877.04226	36.22966	1156.64580	1286.95381	-446.20210	1147.67795	1076.15167	-415.22784	1184.67388	1097.81988	-482.01985	1258.65470	1081.46519	-465.48791	1389.44698	981.91640	-396.26138	1375.14549	961.35931	-439.97737	1078.66475	861.66428	-143.26619	1070.46185	862.18614	-332.65101	1089.85159	859.30335	-166.65149	1087.18030	875.39888	-333.71401	
